<svg width="36" height="36" viewBox="0 0 36 36" fill="none" xmlns="http://www.w3.org/2000/svg">
<path d="M12.5433 12.2406C12.5433 9.20306 15.0058 6.74062 18.0433 6.74062H20.8238C23.8613 6.74062 26.3238 9.20305 26.3238 12.2406V21.5901C26.3238 24.6277 23.8613 27.0901 20.8238 27.0901H18.0433C15.0058 27.0901 12.5433 24.6277 12.5433 21.5901V12.2406ZM14.5687 6.74629C13.7533 7.26303 13.0608 7.95629 12.545 8.77233C12.5877 7.70588 13.4538 6.82468 14.5687 6.74629ZM14.5687 27.0845C13.4538 27.0061 12.5877 26.1249 12.545 25.0584C13.0608 25.8745 13.7533 26.5677 14.5687 27.0845ZM26.3221 25.0584C26.2794 26.1249 25.4133 27.0061 24.2984 27.0845C25.1138 26.5677 25.8063 25.8745 26.3221 25.0584ZM24.2984 6.74629C25.4133 6.82468 26.2794 7.70587 26.3221 8.77232C25.8063 7.95629 25.1138 7.26303 24.2984 6.74629Z" stroke="#00A2EA"/>
<path d="M21.897 29.2324H12.8213C11.4846 29.2324 10.4011 28.1295 10.4011 26.769V11.1674" stroke="#00A2EA"/>
<rect x="0.5" y="0.5" width="34.3636" height="34.3636" rx="3.5" stroke="#00A2EA"/>
</svg>
