<?xml version="1.0" standalone="no"?>
<!DOCTYPE svg PUBLIC "-//W3C//DTD SVG 20010904//EN"
 "http://www.w3.org/TR/2001/REC-SVG-20010904/DTD/svg10.dtd">
<svg version="1.0" xmlns="http://www.w3.org/2000/svg"
 width="836.000000pt" height="836.000000pt" viewBox="0 0 836.000000 836.000000"
 preserveAspectRatio="xMidYMid meet">
<metadata>
Created by potrace 1.14, written by Peter Selinger 2001-2017
</metadata>
<g transform="translate(0.000000,836.000000) scale(0.100000,-0.100000)"
fill="#000000" stroke="none">
<path d="M3782 8353 c-6 -3 -10 -8 -8 -12 3 -4 -4 -7 -15 -7 -10 0 -19 4 -19
9 0 6 -5 5 -12 0 -7 -5 -25 -8 -41 -7 -15 2 -25 -1 -22 -6 3 -5 0 -12 -6 -16
-7 -4 -9 -3 -5 4 11 19 -13 24 -43 9 -21 -11 -32 -12 -40 -4 -8 8 -11 7 -11
-2 0 -10 -3 -11 -13 -2 -10 8 -17 7 -27 -2 -10 -10 -11 -9 -5 1 6 11 3 12 -14
3 -12 -7 -26 -9 -31 -6 -5 3 -12 0 -16 -6 -4 -7 -3 -9 4 -5 6 3 13 2 16 -3 7
-10 -13 -9 -31 2 -6 4 -14 3 -18 -2 -3 -6 -13 -7 -22 -4 -11 5 -14 3 -8 -6 6
-10 3 -11 -13 -2 -16 8 -24 8 -36 -4 -11 -11 -16 -12 -19 -2 -4 8 -8 9 -14 1
-4 -6 -20 -11 -35 -11 -45 -1 -49 -3 -44 -11 3 -5 -9 -6 -26 -4 -19 3 -28 1
-25 -5 4 -6 -4 -8 -20 -5 -16 3 -24 1 -20 -5 4 -7 -5 -10 -23 -8 -20 2 -30 -2
-30 -11 0 -8 -5 -14 -11 -14 -6 0 -8 7 -5 17 5 13 0 11 -20 -7 -15 -14 -24
-20 -20 -13 4 8 -1 11 -13 10 -11 0 -17 -5 -14 -11 4 -5 -1 -7 -9 -3 -22 8
-30 -3 -15 -21 9 -12 7 -12 -14 1 -22 15 -27 15 -46 2 -11 -8 -30 -12 -43 -10
-18 3 -20 2 -10 -10 9 -11 6 -13 -20 -9 -21 4 -32 1 -36 -11 -5 -13 -9 -13
-22 -3 -9 7 -13 8 -10 3 4 -6 -5 -15 -18 -22 -13 -6 -22 -7 -18 -2 3 5 -5 5
-19 0 -14 -6 -28 -7 -33 -3 -4 4 -4 2 0 -5 3 -6 2 -14 -4 -18 -5 -3 -10 0 -10
7 0 10 -3 9 -9 -2 -6 -8 -7 -19 -3 -25 3 -5 -1 -4 -10 3 -12 9 -18 10 -23 2
-4 -6 -14 -9 -22 -6 -8 3 -12 2 -9 -3 3 -5 -1 -12 -10 -15 -8 -3 -12 -11 -8
-17 4 -8 3 -9 -5 -5 -6 4 -8 12 -5 18 4 6 1 8 -7 6 -8 -3 -13 -10 -12 -16 1
-5 -11 -9 -27 -8 -16 1 -26 -2 -23 -8 4 -5 -1 -7 -11 -3 -11 5 -15 3 -10 -5 5
-8 2 -9 -11 -4 -16 6 -16 4 -4 -11 8 -9 9 -14 2 -10 -6 4 -14 3 -18 -3 -4 -7
-14 -6 -28 2 -20 10 -21 9 -9 -5 11 -13 10 -15 -13 -12 -20 2 -25 -1 -20 -14
3 -8 3 -12 -1 -8 -4 4 -14 1 -22 -6 -9 -6 -13 -7 -10 -2 4 6 -2 11 -12 11 -14
0 -16 -3 -8 -13 8 -10 7 -12 -6 -7 -11 4 -16 1 -16 -12 0 -11 -4 -15 -8 -9
-13 18 -31 15 -42 -5 -6 -11 -19 -20 -30 -20 -10 0 -22 -5 -25 -10 -4 -6 -11
-7 -17 -4 -7 4 -8 2 -4 -4 4 -7 2 -12 -4 -12 -6 0 -9 -4 -5 -9 3 -5 0 -13 -6
-17 -7 -4 -9 -3 -6 3 4 6 0 13 -7 16 -10 4 -14 0 -11 -13 3 -14 -1 -17 -12
-13 -12 5 -14 3 -8 -8 4 -8 5 -11 0 -7 -4 4 -15 2 -23 -5 -13 -9 -14 -9 -8 1
4 6 3 12 -2 12 -17 0 -22 -13 -10 -27 9 -11 7 -12 -7 -7 -13 5 -16 4 -10 -5 6
-10 3 -11 -14 -2 -18 10 -21 9 -22 -6 -1 -10 -1 -22 1 -28 1 -5 -4 -4 -11 3
-18 17 -32 15 -25 -4 5 -14 4 -15 -8 -5 -10 8 -16 9 -21 1 -3 -6 -11 -8 -16
-4 -5 3 -9 2 -8 -3 3 -19 -2 -33 -12 -33 -5 0 -8 4 -5 8 3 5 -1 9 -8 9 -8 0
-12 -12 -11 -30 2 -24 0 -27 -9 -16 -6 8 -17 15 -24 17 -10 2 -10 -2 -2 -18 8
-16 8 -20 -2 -18 -7 2 -12 -3 -10 -10 1 -8 -2 -11 -7 -8 -5 4 -12 2 -16 -4 -3
-5 -12 -10 -18 -10 -8 0 -8 3 1 9 11 7 10 9 -3 14 -9 4 -13 3 -10 -3 3 -6 1
-10 -6 -10 -8 0 -8 -4 1 -15 7 -8 17 -12 23 -8 6 4 7 1 2 -6 -5 -9 -10 -10
-18 -2 -17 17 -40 14 -33 -4 4 -13 2 -13 -14 -5 -16 9 -18 7 -14 -16 4 -24 3
-25 -11 -10 -20 19 -26 20 -23 4 2 -7 -3 -12 -9 -10 -7 1 -13 -3 -13 -10 0 -6
-3 -9 -6 -5 -3 3 -16 -5 -29 -18 -12 -14 -26 -21 -31 -17 -5 4 -1 -2 9 -14 14
-17 14 -21 2 -21 -8 0 -12 4 -9 9 11 17 -17 7 -33 -12 -13 -15 -20 -17 -32 -8
-13 10 -14 10 -3 -2 15 -17 16 -31 1 -28 -6 2 -14 -4 -16 -12 -4 -13 -3 -13 6
0 8 12 10 11 8 -7 -1 -17 -4 -19 -14 -11 -9 7 -13 7 -13 -1 0 -7 -5 -9 -12 -5
-7 5 -9 2 -5 -8 4 -12 -1 -15 -23 -14 -16 1 -26 -2 -24 -6 3 -4 -2 -11 -10
-14 -9 -3 -13 -10 -10 -15 3 -6 0 -16 -6 -24 -9 -11 -17 -12 -32 -4 -16 9 -19
8 -12 -3 13 -20 13 -37 2 -45 -7 -3 -8 -1 -4 5 8 14 -29 11 -41 -3 -5 -4 -2
-5 5 -1 18 11 15 -9 -5 -25 -11 -10 -14 -10 -9 -1 4 6 2 12 -3 12 -6 0 -11 -7
-11 -16 0 -8 -4 -13 -8 -10 -5 3 -19 -6 -31 -20 -12 -14 -26 -22 -32 -19 -5 4
-8 1 -7 -7 2 -7 -2 -12 -8 -11 -6 1 -11 -4 -11 -11 0 -7 6 -13 14 -13 7 0 13
5 13 10 0 15 48 56 56 48 4 -3 4 0 -1 8 -5 9 -4 12 3 7 17 -10 15 -26 -4 -26
-8 0 -12 -5 -9 -10 4 -6 3 -10 -2 -9 -20 4 -31 -2 -36 -20 -3 -14 -12 -19 -35
-17 -25 2 -29 -1 -23 -13 4 -9 2 -27 -6 -41 l-13 -25 2 27 c1 15 6 24 12 21 5
-3 6 -1 2 6 -11 17 -37 -6 -29 -26 5 -12 3 -14 -8 -8 -11 7 -12 6 -2 -6 10
-12 8 -15 -8 -16 -12 -1 -17 3 -13 9 4 7 2 8 -4 4 -8 -4 -8 -15 -2 -31 8 -22
7 -23 -23 -19 -23 2 -28 1 -17 -6 14 -9 7 -14 -13 -11 -5 1 -5 -4 -1 -11 14
-22 13 -37 -3 -31 -12 5 -12 7 -1 14 9 6 9 9 1 9 -6 0 -15 -5 -18 -10 -4 -6
-11 -8 -16 -5 -15 10 -10 -2 8 -16 14 -12 16 -12 8 0 -5 10 -4 12 4 7 14 -9 0
-31 -32 -48 -15 -8 -18 -7 -12 3 6 8 4 10 -4 5 -9 -6 -8 -13 6 -29 16 -19 16
-20 1 -8 -15 11 -21 11 -33 1 -14 -11 -14 -15 2 -33 16 -18 14 -18 -17 3 l-35
24 23 -26 c17 -19 20 -28 11 -33 -7 -5 -10 -4 -6 2 4 6 0 14 -9 17 -8 3 -12 2
-9 -4 3 -6 1 -10 -4 -10 -6 0 -11 -8 -11 -17 0 -14 2 -15 9 -4 6 9 11 10 15 2
4 -6 4 -11 -1 -12 -4 0 -16 -2 -25 -4 -12 -2 -15 2 -11 13 4 14 3 15 -5 2 -6
-8 -8 -18 -5 -24 4 -5 0 -7 -8 -4 -11 4 -14 -1 -13 -23 1 -18 -2 -27 -9 -22
-7 4 -8 0 -3 -12 6 -18 6 -18 -15 1 -12 10 -19 14 -16 7 4 -6 3 -14 -3 -18 -7
-4 -6 -13 1 -27 8 -15 8 -19 0 -14 -6 4 -14 0 -17 -8 -5 -13 -10 -13 -27 -4
-19 9 -20 9 -11 -3 13 -17 16 -57 5 -64 -5 -2 -7 7 -5 20 1 14 -2 27 -6 30 -5
3 -7 -4 -5 -16 3 -15 0 -19 -10 -15 -11 4 -12 0 -5 -20 6 -14 6 -23 1 -20 -5
3 -11 -1 -14 -8 -3 -8 -2 -17 4 -20 5 -2 4 -3 -3 -2 -13 4 -14 8 -3 41 3 11
-1 8 -10 -7 -8 -16 -21 -28 -28 -28 -7 -1 -1 -8 13 -16 14 -9 17 -13 6 -10
-13 4 -17 2 -13 -7 4 -10 -2 -13 -19 -11 -13 1 -22 -2 -18 -7 3 -5 10 -7 15
-4 5 4 9 1 9 -5 0 -8 -10 -10 -27 -6 -16 4 -23 3 -18 -1 15 -12 17 -40 4 -49
-8 -5 -9 -3 -4 6 5 9 4 11 -4 6 -6 -4 -8 -12 -5 -18 5 -7 2 -9 -8 -6 -11 5
-15 0 -14 -15 0 -12 5 -25 9 -28 5 -3 1 -9 -8 -12 -9 -4 -14 -3 -11 2 3 5 0
11 -8 14 -11 5 -13 0 -6 -23 6 -22 4 -32 -8 -42 -9 -7 -13 -8 -9 -2 3 6 0 11
-8 11 -8 0 -11 -5 -8 -10 3 -5 0 -13 -8 -17 -17 -11 -21 -41 -7 -57 6 -8 8
-16 4 -20 -3 -3 -6 -2 -6 4 0 15 -27 24 -27 10 0 -7 -4 -20 -8 -30 -6 -14 -3
-16 11 -11 14 4 16 3 5 -4 -7 -5 -18 -16 -23 -23 -8 -11 -9 -10 -4 4 3 9 1 17
-5 17 -6 0 -7 5 -3 12 4 6 3 8 -3 5 -6 -4 -8 -19 -5 -33 3 -18 1 -25 -6 -20
-6 3 -14 1 -18 -5 -4 -8 -3 -9 4 -5 7 4 12 1 12 -9 0 -11 -5 -15 -15 -11 -8 3
-14 2 -14 -2 4 -25 -3 -42 -13 -37 -7 4 -6 1 2 -7 14 -12 14 -15 0 -29 -9 -8
-21 -14 -27 -12 -6 2 -8 -7 -5 -23 3 -17 1 -25 -6 -20 -6 4 -8 -2 -5 -14 6
-21 -12 -28 -20 -7 -2 6 -3 -10 -2 -37 2 -46 1 -48 -13 -30 -10 14 -13 14 -9
3 3 -9 1 -21 -5 -27 -6 -6 -11 -21 -12 -34 -1 -13 -7 -22 -14 -20 -9 2 -10 -3
-3 -16 11 -20 5 -33 -24 -51 -13 -8 -14 -11 -3 -7 25 7 30 -6 7 -18 -12 -6
-20 -13 -19 -16 2 -3 -2 -14 -8 -26 -8 -16 -8 -24 1 -33 9 -10 8 -11 -6 -5
-13 5 -16 2 -10 -12 4 -12 3 -15 -5 -10 -8 5 -10 1 -5 -10 4 -12 3 -15 -5 -10
-8 5 -10 2 -6 -8 3 -9 11 -13 18 -10 6 3 0 -4 -14 -16 -14 -12 -18 -19 -10
-15 8 4 5 -2 -8 -14 -12 -11 -18 -22 -13 -25 5 -4 11 0 14 6 2 7 4 1 3 -14 -1
-20 -4 -24 -17 -18 -11 6 -16 5 -16 -5 0 -8 5 -11 10 -8 5 3 7 0 5 -8 -3 -8
-1 -23 4 -34 9 -20 9 -20 -6 -1 -9 11 -19 17 -22 13 -4 -4 -1 -13 6 -22 10
-12 9 -15 -6 -16 -18 0 -18 -1 0 -8 19 -7 18 -8 -4 -14 -13 -3 -21 -9 -17 -13
4 -4 1 -14 -6 -23 -11 -14 -10 -14 5 -2 10 7 15 18 11 25 -4 6 1 5 10 -3 17
-14 24 -26 9 -17 -5 3 -16 -4 -25 -14 -11 -13 -12 -20 -4 -24 7 -2 3 -5 -7 -5
-20 -1 -20 -1 0 -17 10 -8 14 -13 8 -10 -7 3 -17 -1 -24 -9 -11 -13 -10 -14 3
-10 8 4 18 0 23 -7 4 -7 4 -10 -1 -6 -4 4 -15 3 -25 -2 -18 -9 -20 -46 -4 -72
6 -10 3 -9 -9 1 -10 8 -20 11 -24 7 -3 -3 -1 -6 5 -6 7 0 12 -7 12 -16 0 -9
-5 -12 -12 -8 -10 6 -10 5 -1 -7 15 -18 13 -30 -7 -49 -9 -8 -10 -11 -4 -7 9
6 12 2 11 -12 0 -11 -4 -18 -9 -15 -4 2 -7 -10 -6 -28 0 -18 -1 -115 -2 -215
-1 -99 0 -185 4 -191 3 -5 3 -12 -1 -16 -10 -9 -10 -56 0 -56 4 0 5 -5 2 -10
-9 -14 -9 -386 0 -399 3 -6 3 -11 -2 -11 -9 0 -9 -52 0 -67 4 -6 4 -13 1 -16
-8 -7 -7 -384 0 -396 4 -5 2 -12 -4 -16 -6 -4 -8 -11 -4 -16 3 -6 6 -38 6 -72
0 -34 6 -65 12 -69 8 -5 7 -8 -2 -8 -8 0 -11 -7 -8 -17 3 -10 7 -33 8 -50 1
-18 6 -33 10 -33 5 0 4 -10 -3 -21 -8 -15 -8 -19 0 -15 7 4 11 -1 11 -13 0
-12 5 -21 11 -21 8 0 8 -5 -1 -15 -12 -14 -7 -19 15 -16 6 1 1 -6 -9 -14 -20
-15 -20 -15 0 -15 16 0 17 -2 4 -10 -13 -8 -12 -10 4 -10 16 0 17 -3 8 -12 -7
-7 -12 -17 -12 -22 0 -6 5 -4 11 4 8 12 10 9 6 -13 -4 -23 -2 -25 11 -15 13
11 14 10 3 -9 -9 -17 -9 -23 0 -23 9 0 9 -3 0 -14 -9 -10 -7 -17 6 -27 14 -12
16 -12 8 0 -6 10 -4 12 4 6 9 -5 9 -11 3 -17 -12 -12 -4 -40 9 -32 5 3 6 -2 3
-11 -5 -13 -9 -13 -23 -3 -14 10 -14 10 -3 -2 7 -8 18 -15 25 -15 7 0 12 -7
13 -15 2 -37 5 -41 17 -34 8 5 7 2 -2 -9 -12 -15 -11 -20 6 -40 21 -24 23 -34
9 -56 -6 -10 -5 -12 2 -7 7 4 12 2 12 -3 0 -18 3 -25 21 -44 9 -10 15 -29 13
-42 -2 -23 5 -29 31 -26 6 1 1 -6 -9 -14 -11 -8 -14 -15 -8 -15 7 0 12 -7 12
-16 0 -8 4 -13 9 -10 5 3 9 0 8 -7 -1 -35 4 -48 16 -41 6 4 9 4 5 -1 -4 -4 0
-22 9 -39 16 -30 16 -31 -3 -16 -18 14 -18 14 -4 -5 9 -11 22 -32 30 -47 7
-16 18 -28 24 -28 6 0 4 -5 -4 -10 -11 -7 -11 -10 -2 -10 7 0 10 -4 7 -10 -3
-5 1 -10 11 -10 14 0 14 -3 4 -16 -11 -13 -10 -16 9 -21 18 -4 20 -8 9 -15 -9
-7 -5 -8 12 -4 22 4 23 3 8 -8 -15 -11 -15 -13 0 -24 11 -8 11 -10 2 -6 -10 5
-9 1 4 -14 10 -12 22 -19 27 -17 4 3 10 1 14 -4 3 -6 -4 -8 -17 -6 -21 5 -21
3 5 -21 15 -14 25 -29 22 -35 -4 -5 -1 -9 4 -9 6 0 11 -5 11 -11 0 -5 -6 -7
-13 -4 -6 4 -2 -2 11 -13 12 -11 22 -25 22 -32 0 -6 5 -8 11 -5 6 4 9 0 7 -11
-2 -11 2 -18 8 -17 6 1 10 -9 8 -23 -2 -22 0 -24 14 -12 9 7 14 8 10 4 -4 -5
-2 -16 5 -24 6 -9 7 -13 1 -9 -6 3 -11 0 -11 -8 0 -11 5 -12 21 -3 19 10 19 9
8 -4 -8 -10 -9 -19 -3 -22 5 -3 11 -3 14 1 2 5 2 2 0 -5 -1 -8 4 -20 12 -29 8
-8 13 -19 10 -24 -4 -5 1 -9 10 -9 9 0 13 -4 10 -10 -3 -5 2 -10 12 -11 16 0
16 -1 -2 -9 -17 -7 -17 -9 -2 -9 9 -1 17 -6 17 -12 0 -5 4 -7 10 -4 6 3 7 -1
4 -9 -4 -9 -1 -16 6 -16 7 0 10 -7 6 -16 -3 -8 -2 -12 3 -9 5 3 12 -4 16 -15
4 -12 11 -17 18 -13 7 4 5 -2 -3 -12 -8 -10 -10 -16 -3 -12 6 4 14 3 18 -3 4
-6 11 -8 16 -4 5 3 9 2 8 -3 -1 -4 -1 -15 0 -23 1 -13 2 -13 12 0 8 12 9 10 4
-7 -5 -18 -2 -23 12 -23 15 0 16 -2 3 -10 -13 -9 -13 -10 0 -11 8 -1 19 -1 24
0 5 1 3 -6 -5 -15 -8 -10 -9 -15 -3 -11 7 4 14 -2 17 -13 3 -11 13 -20 24 -20
15 0 16 -2 3 -10 -13 -8 -13 -10 2 -10 9 0 20 -9 23 -20 3 -11 13 -20 22 -20
10 0 14 -6 10 -19 -4 -15 0 -19 15 -16 16 3 17 1 8 -10 -8 -10 -8 -15 1 -21 7
-4 9 -3 6 3 -3 5 0 10 7 10 8 0 12 -10 10 -24 -1 -13 1 -21 6 -18 4 3 16 -3
27 -13 10 -9 12 -13 3 -8 -8 5 -4 -2 10 -16 14 -14 28 -24 32 -21 4 2 5 -3 2
-11 -4 -11 0 -16 10 -16 14 0 20 -12 17 -33 0 -4 2 -6 6 -6 5 1 15 1 23 0 13
-1 13 -2 0 -12 -12 -9 -10 -10 8 -6 20 5 21 3 11 -9 -7 -8 -8 -14 -3 -13 5 1
16 1 24 0 13 -1 13 -2 0 -11 -12 -8 -11 -10 8 -10 15 0 22 -6 22 -20 0 -11 3
-19 8 -19 22 4 32 -3 32 -23 0 -19 2 -20 10 -8 7 11 10 11 10 2 0 -7 4 -11 9
-7 6 3 8 -3 6 -14 -2 -14 1 -18 11 -14 8 3 14 -1 14 -11 0 -10 6 -13 17 -9 10
3 15 3 11 -2 -8 -8 28 -45 44 -45 4 0 8 -7 8 -15 0 -8 6 -15 13 -15 7 0 20 -8
29 -18 29 -30 46 -41 54 -34 4 4 4 2 1 -5 -4 -7 11 -23 38 -40 24 -15 44 -33
45 -40 0 -7 9 -10 21 -8 17 3 19 1 9 -10 -9 -11 -7 -12 12 -8 18 4 20 3 8 -6
-13 -9 -12 -11 3 -11 12 0 16 -4 11 -13 -6 -9 -4 -9 8 1 13 10 18 10 24 1 4
-8 3 -9 -4 -5 -7 4 -12 2 -12 -3 0 -6 7 -11 15 -11 9 0 18 -7 21 -15 4 -8 12
-15 20 -15 8 0 14 -4 14 -10 0 -5 10 -14 21 -21 17 -9 20 -8 15 3 -4 7 1 3 10
-10 9 -12 23 -22 31 -22 8 0 11 -5 7 -12 -5 -8 -2 -9 9 -5 11 4 17 1 17 -9 0
-8 4 -12 10 -9 5 3 10 2 10 -4 0 -6 7 -7 17 -4 11 4 14 3 9 -5 -4 -7 -2 -12 4
-12 6 0 8 -5 4 -11 -4 -8 0 -8 15 0 12 7 21 8 20 4 -1 -4 -1 -14 0 -22 1 -11
4 -11 18 0 10 9 14 9 10 2 -8 -13 26 -37 37 -26 3 3 6 1 6 -6 0 -7 5 -9 10 -6
6 4 9 1 8 -7 -2 -7 3 -12 10 -10 6 1 12 -2 12 -7 0 -5 7 -12 16 -15 15 -6 15
-4 3 11 -13 16 -12 17 4 4 9 -7 17 -21 17 -30 0 -14 2 -14 10 -1 8 12 10 12
10 -5 0 -17 2 -17 10 -5 8 13 10 12 10 -3 0 -10 5 -15 10 -12 6 3 10 1 10 -6
0 -8 4 -8 15 1 13 11 14 10 9 -5 -5 -13 -4 -16 4 -11 7 4 12 2 12 -3 0 -6 7
-11 16 -11 9 0 12 -5 8 -12 -5 -9 -2 -9 9 1 9 7 18 11 18 7 1 -3 2 -10 3 -15
0 -5 5 -13 10 -18 5 -5 6 -3 2 5 -4 6 -3 12 3 12 5 0 12 -6 14 -12 4 -10 6 -9
6 1 1 10 7 7 20 -7 10 -12 21 -19 25 -15 3 3 6 1 6 -6 0 -8 6 -11 16 -7 8 3
12 2 9 -4 -6 -9 8 -14 28 -11 4 0 7 -3 7 -9 0 -5 9 -10 20 -10 11 0 20 -4 20
-10 0 -5 14 -10 30 -10 27 0 35 -9 31 -33 -1 -5 3 -6 9 -2 6 3 7 12 3 18 -5 8
-2 8 9 0 8 -7 19 -9 23 -5 5 4 5 1 1 -6 -4 -7 -1 -12 8 -12 8 0 25 -4 38 -9
13 -5 27 -9 31 -9 4 -1 15 -8 23 -17 9 -8 20 -13 25 -10 5 4 9 0 9 -7 0 -10 2
-10 9 1 7 11 11 10 22 -7 10 -16 16 -18 26 -10 9 7 13 7 13 -1 0 -6 7 -11 16
-11 9 0 12 -5 8 -13 -6 -9 -5 -9 7 0 8 6 16 13 19 15 3 1 20 -7 38 -20 22 -16
32 -19 32 -10 1 8 8 4 20 -10 13 -15 21 -19 26 -11 5 9 11 7 21 -6 9 -13 13
-14 13 -5 0 9 5 7 15 -6 10 -13 14 -14 15 -5 0 10 3 11 13 2 8 -6 17 -8 20 -4
4 3 7 0 7 -7 0 -9 5 -7 15 6 11 13 13 14 9 3 -3 -10 1 -19 10 -22 9 -4 16 -1
16 5 0 7 7 3 16 -8 8 -10 12 -12 8 -4 -6 12 -4 13 7 2 17 -16 32 -16 24 1 -4
6 0 4 8 -6 11 -14 16 -15 20 -5 4 9 6 9 6 -2 1 -11 12 -15 40 -15 22 0 38 -3
35 -6 -2 -4 3 -10 12 -13 8 -3 13 -2 9 3 -4 8 16 8 35 1 3 -1 8 -2 13 -1 4 0
7 -4 7 -10 0 -8 5 -8 15 1 9 7 15 8 15 2 0 -5 7 -13 16 -16 8 -3 13 -2 10 3
-4 5 3 7 14 4 11 -3 20 -10 20 -16 0 -8 3 -8 11 0 13 13 39 6 57 -16 11 -14
11 -14 6 1 -6 18 -4 18 59 2 45 -11 52 -11 64 -2 7 5 14 5 18 -2 3 -6 12 -7
18 -3 7 4 5 -2 -3 -12 -14 -17 -14 -18 5 -8 20 10 82 10 92 -1 4 -3 12 -1 20
5 7 7 13 7 13 2 0 -6 12 -9 28 -8 15 1 33 -2 40 -8 8 -7 12 -5 12 7 0 10 5 14
10 11 6 -4 8 -10 5 -15 -3 -5 0 -12 6 -16 8 -4 9 -3 5 5 -6 8 1 10 25 6 29 -5
31 -4 18 11 -13 16 -12 16 13 0 20 -13 27 -14 31 -4 4 11 6 11 6 0 1 -7 5 -10
11 -7 5 3 10 0 10 -7 0 -9 3 -9 10 2 5 8 10 11 10 5 0 -5 11 -10 25 -10 14 0
25 4 25 8 0 5 5 5 10 2 6 -4 7 -12 3 -18 -3 -7 2 -5 13 4 10 9 26 15 34 13 46
-10 57 -11 74 -2 14 8 17 7 11 -3 -6 -8 -4 -10 6 -4 7 5 34 10 59 11 25 0 45
2 45 4 0 1 12 3 27 4 15 2 25 -1 22 -5 -2 -4 -13 -6 -24 -4 -12 2 -18 0 -15
-5 7 -11 57 -2 70 12 7 8 6 9 -4 3 -9 -5 -12 -4 -7 3 4 8 15 8 31 2 15 -6 27
-6 30 0 8 13 25 13 25 -1 0 -5 -4 -8 -8 -5 -5 3 -9 -1 -9 -9 0 -10 7 -9 25 6
17 13 29 16 37 9 8 -6 15 -6 23 2 9 9 12 9 12 -1 0 -7 5 -9 10 -6 6 4 7 11 4
17 -4 6 2 6 15 -1 17 -10 21 -9 21 4 0 9 5 13 10 10 6 -4 8 -11 5 -16 -4 -5
-2 -9 3 -9 6 0 12 6 15 14 3 8 16 12 31 11 14 -2 28 1 32 6 3 5 13 5 25 -1 15
-9 19 -7 19 7 0 15 2 15 16 -3 8 -10 12 -13 8 -5 -5 10 -3 13 8 8 9 -3 19 -3
22 1 10 10 37 11 31 1 -4 -5 1 -6 9 -3 9 3 16 14 17 23 1 9 4 6 9 -9 5 -14 8
-18 9 -9 1 19 51 33 51 15 0 -8 2 -8 8 0 10 16 57 30 47 14 -4 -7 5 -4 21 6
21 14 26 15 19 4 -7 -13 -6 -13 7 -2 12 9 18 10 23 2 5 -8 15 -4 32 11 19 19
26 21 32 10 6 -9 10 -10 12 -2 4 11 36 21 82 25 10 2 23 9 28 17 7 12 9 12 9
0 0 -11 4 -10 16 5 8 10 13 13 9 7 -10 -20 13 -15 24 5 6 10 11 12 11 4 0 -9
6 -9 23 3 13 8 27 12 30 8 4 -3 7 0 7 8 0 12 2 12 10 -1 8 -12 10 -12 16 3 5
14 9 15 21 6 11 -10 13 -9 11 2 -2 8 3 13 10 11 6 -1 12 3 12 8 0 7 7 7 21 -1
13 -7 19 -7 15 -1 -3 6 -2 13 4 17 5 3 10 1 10 -4 0 -6 5 -11 11 -11 5 0 8 4
5 8 -3 5 11 17 31 26 31 15 35 15 24 2 -8 -10 -9 -16 -3 -16 6 0 14 10 17 21
6 17 9 19 16 8 7 -12 9 -12 9 0 0 7 6 11 14 8 8 -3 24 5 37 19 16 17 26 21 35
13 9 -7 15 -5 22 8 6 10 23 20 38 21 15 1 32 6 39 12 6 5 15 7 18 3 4 -3 7 1
7 10 0 11 5 14 17 10 10 -4 14 -2 10 4 -5 7 1 9 15 5 19 -4 21 -3 11 9 -10 12
-6 14 23 13 23 -1 37 4 43 15 5 9 13 16 18 16 4 0 7 4 5 9 -2 5 4 3 13 -4 13
-11 15 -10 9 4 -5 14 -2 16 20 12 18 -3 24 -1 20 6 -5 7 0 9 14 6 17 -5 20 -2
16 21 -5 25 -5 25 10 6 15 -20 15 -19 16 5 0 20 2 22 10 10 9 -13 14 -7 11 12
0 4 7 4 16 1 11 -4 14 -3 9 5 -5 8 -1 10 10 5 13 -5 15 -3 9 8 -7 12 -6 12 7
1 14 -11 18 -10 27 6 6 11 7 23 3 28 -4 5 2 2 12 -6 17 -13 18 -13 11 -1 -6
11 -4 13 9 8 13 -5 17 -3 13 7 -4 10 1 12 16 9 18 -4 20 -3 7 7 -13 10 -11 11
7 7 13 -3 24 1 27 10 3 7 19 19 35 24 16 6 29 16 27 22 -1 7 -1 9 1 5 8 -14
25 -8 20 6 -4 10 1 12 16 9 18 -4 20 -3 7 7 -12 9 -10 11 12 7 24 -4 26 -2 17
15 -10 18 -9 19 13 7 21 -11 22 -11 9 5 -12 14 -12 16 4 10 14 -6 16 -4 10 7
-7 11 -5 11 10 -1 11 -9 16 -10 11 -2 -5 8 -1 12 11 12 15 0 16 2 3 11 -12 9
-11 10 8 6 20 -5 28 6 23 35 0 4 6 5 14 2 9 -4 21 -1 29 5 7 6 17 7 21 3 5 -4
5 -1 0 6 -5 10 -10 11 -18 3 -6 -6 -15 -11 -20 -11 -5 0 1 9 14 19 16 13 28
16 36 10 13 -12 13 7 -2 31 -5 9 1 7 15 -5 13 -11 21 -15 18 -10 -4 6 1 19 9
30 15 19 15 19 8 -4 -6 -21 -5 -22 8 -10 8 8 13 17 10 21 -2 5 3 8 11 8 9 0
16 7 16 15 0 8 7 15 15 15 8 0 15 6 15 13 0 16 30 46 45 46 5 0 11 5 14 12 2
8 -1 9 -10 4 -8 -5 -11 -4 -6 1 5 5 14 9 20 9 7 1 11 7 9 14 -1 7 2 10 8 6 6
-3 7 -11 4 -17 -4 -7 -2 -8 4 -4 7 4 12 17 12 29 0 17 2 19 9 7 6 -8 7 -18 4
-24 -3 -5 -1 -6 5 -3 5 4 8 17 4 29 -3 14 -2 19 6 14 7 -4 12 -2 12 3 0 6 -5
11 -12 11 -6 0 -9 3 -6 6 4 3 17 0 30 -7 21 -11 22 -11 9 5 -12 14 -12 16 4
10 13 -5 16 -4 11 4 -4 7 -1 12 8 12 9 0 16 5 16 11 0 5 -5 7 -12 3 -7 -4 -8
-3 -4 5 6 9 11 9 21 1 9 -7 16 -6 24 3 6 8 8 17 4 20 -3 4 -1 8 5 8 27 3 31 4
39 13 5 5 2 6 -6 1 -9 -5 -12 -3 -9 6 3 8 11 13 17 11 10 -2 15 11 12 30 0 4
7 4 15 1 12 -4 15 -2 12 8 -3 8 -11 13 -17 11 -7 -1 -10 2 -7 7 3 5 21 8 39 5
17 -2 26 -1 20 2 -18 8 -16 24 2 24 8 0 15 7 15 15 0 8 5 15 11 15 5 0 7 6 3
13 -5 7 0 6 11 -3 10 -8 16 -10 12 -3 -9 15 13 53 30 53 7 0 13 9 13 20 0 13
7 20 20 20 11 0 20 4 20 10 0 5 -8 7 -17 4 -16 -5 -16 -4 0 6 10 7 21 9 24 6
4 -3 12 -1 20 6 11 9 11 14 -4 31 -18 20 -18 20 12 1 26 -16 28 -17 16 -1 -12
15 -11 17 3 17 9 0 16 5 16 11 0 5 6 7 13 3 7 -5 6 0 -3 11 -12 15 -12 17 -1
10 11 -6 13 -4 8 7 -7 21 3 31 19 17 8 -7 14 -6 20 2 4 8 3 9 -4 5 -7 -4 -12
-2 -12 4 0 6 7 13 15 16 8 4 12 10 9 15 -3 5 1 9 9 9 17 0 31 27 28 50 -2 8 0
12 4 8 4 -4 14 -1 21 7 17 17 18 29 2 19 -9 -5 -8 -2 1 9 11 14 17 15 30 5 9
-7 13 -8 8 -3 -4 4 1 18 10 29 17 20 17 20 0 7 -15 -12 -17 -12 -11 2 3 9 13
17 22 19 9 2 17 12 17 23 0 13 6 19 18 19 15 -2 16 1 5 14 -11 13 -10 15 5 9
15 -6 16 -4 6 16 -12 21 -11 21 6 7 10 -8 16 -10 12 -3 -4 6 4 24 18 39 14 15
25 32 25 37 0 6 -7 2 -16 -9 -14 -18 -15 -18 -4 4 10 20 14 21 28 10 10 -8 13
-9 9 -1 -4 6 -2 15 4 18 5 4 8 13 5 21 -3 8 -1 14 5 14 6 0 7 5 4 10 -3 6 -1
10 5 10 6 0 8 5 4 12 -5 8 -2 9 11 4 16 -6 16 -4 4 11 -12 14 -12 16 0 8 11
-6 13 -4 8 8 -3 9 -1 19 5 23 6 4 8 3 4 -4 -3 -6 -1 -14 6 -18 7 -4 10 -3 5 1
-4 5 0 19 8 31 14 21 14 23 -2 17 -14 -5 -13 -3 3 14 10 11 22 18 26 16 4 -2
10 2 14 8 4 7 3 9 -3 6 -6 -4 -13 0 -16 8 -4 9 -1 12 9 8 9 -3 14 1 14 12 0
10 4 13 13 9 7 -5 6 0 -3 11 -10 13 -11 16 -2 11 9 -5 15 -1 19 13 3 11 10 18
16 14 6 -3 7 -1 3 5 -4 6 -14 9 -24 6 -9 -2 -7 1 6 7 14 8 21 18 17 27 -4 12
-3 13 9 3 13 -11 15 -9 11 9 -3 17 0 21 13 16 14 -5 13 -3 -2 9 -11 8 -14 15
-7 15 7 0 9 4 6 10 -4 6 1 7 12 3 10 -3 15 -3 11 2 -4 4 -2 15 5 23 10 13 9
14 -2 7 -11 -6 -12 -5 -5 6 5 8 9 17 9 21 0 3 4 10 9 15 6 5 6 2 1 -7 -8 -13
-7 -13 9 -1 13 11 14 16 4 22 -9 6 -8 10 5 15 9 3 14 11 11 16 -4 6 0 14 7 19
12 8 12 11 -1 19 -12 8 -10 10 10 11 14 0 19 3 12 6 -10 4 -9 10 5 26 10 11
13 17 6 14 -6 -4 -15 -2 -19 4 -4 8 -3 9 4 5 7 -4 12 -2 12 4 0 6 4 9 9 5 6
-3 8 4 6 17 -3 12 3 31 13 42 13 15 13 18 2 12 -9 -5 -8 -2 2 7 10 8 15 16 13
19 -3 3 1 11 9 17 8 7 13 18 10 26 -3 7 -1 16 5 20 15 9 14 28 -1 20 -7 -4 -6
-1 3 7 9 7 14 18 12 25 -2 6 6 21 19 34 19 18 20 21 4 15 -14 -5 -16 -3 -9 6
6 7 9 23 8 35 -1 13 1 21 3 18 3 -3 11 0 18 6 10 8 11 16 4 30 -8 14 -7 17 4
13 8 -3 17 0 22 7 4 8 3 10 -4 5 -18 -11 -15 19 3 34 12 10 13 16 3 28 -11 13
-10 15 6 9 16 -6 17 -5 6 8 -10 12 -10 18 0 30 7 8 10 21 7 29 -4 9 -1 13 6
10 8 -3 13 9 14 36 0 22 7 48 15 57 7 9 8 14 2 10 -8 -4 -11 2 -10 17 0 13 3
23 6 21 3 -2 12 4 20 13 13 14 12 15 -2 10 -12 -5 -15 -2 -11 13 3 10 8 17 12
15 3 -2 7 7 7 20 1 15 -2 21 -9 17 -6 -3 -3 4 6 17 12 17 13 28 6 41 -7 14 -6
17 4 14 8 -4 13 3 14 15 1 13 -2 18 -10 13 -7 -3 -3 4 8 17 11 13 15 20 8 17
-6 -4 -14 -3 -18 3 -3 5 1 10 10 10 12 0 15 5 11 16 -3 9 -6 18 -6 20 0 3 -5
2 -12 -2 -7 -4 -8 -3 -4 5 4 6 11 9 16 6 4 -3 10 4 13 15 3 13 1 18 -6 13 -7
-4 -6 1 2 10 9 12 10 17 2 17 -7 0 -9 5 -6 10 4 6 11 7 17 4 7 -5 7 -1 0 12
-8 14 -6 21 6 32 16 13 16 13 0 8 -10 -3 -18 -3 -18 1 0 3 8 12 18 20 16 14
16 14 -1 9 -16 -5 -16 -4 0 21 10 15 13 24 7 21 -12 -8 -12 20 0 40 4 7 2 12
-6 12 -9 0 -9 3 -2 8 6 4 10 21 10 37 0 17 -4 33 -10 37 -7 5 -3 8 8 8 16 0
17 2 5 17 -10 11 -10 14 -1 9 6 -4 12 -3 12 2 0 6 7 13 16 16 14 5 15 4 5 -8
-8 -10 -10 -24 -5 -38 11 -31 12 -88 2 -82 -4 3 -8 0 -8 -5 0 -6 5 -11 11 -11
8 0 8 -4 2 -12 -10 -14 -10 -25 1 -50 4 -9 9 -36 10 -60 1 -24 5 -49 9 -56 5
-7 3 -12 -5 -12 -8 0 -9 -3 -3 -8 6 -4 11 -29 10 -56 0 -30 5 -50 13 -53 9 -4
10 -9 1 -19 -8 -10 -8 -14 0 -14 6 0 11 -5 11 -11 0 -5 -5 -7 -11 -3 -8 4 -8
1 -1 -12 5 -11 12 -26 15 -34 3 -8 4 23 3 70 -1 65 2 88 14 98 8 8 10 11 4 8
-14 -7 -26 32 -13 40 5 3 7 9 4 13 -2 5 -4 181 -4 392 0 541 0 529 -6 539 -3
6 -2 10 3 10 5 0 6 17 2 40 -4 22 -5 42 -2 44 6 7 8 86 2 86 -6 0 -5 76 1 99
2 8 -5 17 -16 19 -16 4 -17 2 -7 -10 9 -11 9 -17 0 -26 -9 -9 -9 -12 0 -12 7
0 12 -5 12 -11 0 -5 -4 -8 -9 -4 -5 3 -13 0 -17 -6 -5 -8 -3 -9 6 -4 8 5 11 3
8 -6 -3 -8 -10 -13 -16 -12 -6 2 -9 -4 -5 -13 5 -13 7 -13 14 -2 5 7 9 8 9 3
0 -6 -5 -16 -12 -23 -7 -7 -8 -12 -2 -12 5 0 2 -5 -6 -10 -12 -8 -10 -10 10
-11 22 0 22 -1 6 -8 -11 -4 -21 -17 -23 -30 -2 -16 1 -20 9 -15 10 6 9 3 0 -9
-15 -18 -13 -64 3 -87 8 -13 8 -13 -7 -2 -11 9 -18 10 -23 2 -3 -5 -1 -10 4
-10 13 0 10 -22 -4 -32 -6 -5 -5 -8 3 -8 6 0 12 -5 12 -11 0 -5 -6 -7 -12 -3
-10 6 -10 4 -2 -7 15 -21 11 -65 -6 -61 -10 1 -8 -4 5 -14 16 -14 17 -16 3
-11 -22 8 -23 -2 -3 -31 l16 -22 -30 18 c-16 9 -26 19 -22 22 12 8 11 50 -2
50 -6 0 -2 7 9 16 10 8 14 13 8 10 -7 -3 -15 1 -18 10 -3 8 -2 12 4 9 12 -8
13 5 0 25 -5 9 -5 19 2 27 7 9 7 13 -2 13 -10 0 -10 3 0 15 10 12 10 15 0 15
-9 0 -9 4 1 17 12 14 12 16 0 8 -11 -6 -13 -4 -8 8 3 8 -1 21 -9 27 -8 7 -14
18 -14 24 0 6 5 3 11 -6 5 -10 15 -18 22 -18 9 0 9 2 0 8 -6 4 -14 20 -17 35
-2 14 -7 31 -11 37 -3 5 -1 10 6 10 8 0 9 4 0 13 -8 10 -7 17 1 25 9 9 6 10
-13 7 -22 -4 -23 -3 -6 9 12 9 14 16 8 21 -15 9 -14 28 2 20 6 -4 3 1 -7 9
-11 9 -15 16 -10 16 13 0 11 25 -5 63 -6 16 -9 33 -5 38 3 5 0 9 -7 9 -8 0 -8
4 1 15 12 14 7 20 -15 15 -5 -1 -5 4 2 11 8 8 9 18 2 31 -5 10 -7 23 -4 28 3
6 1 10 -4 10 -6 0 -11 5 -11 11 0 5 5 7 11 4 6 -4 1 11 -10 32 -13 27 -17 44
-10 51 5 7 6 10 3 7 -14 -10 -32 29 -23 47 7 12 6 18 -2 18 -6 0 -9 9 -6 20 3
10 0 18 -5 17 -9 -2 -18 35 -21 81 0 6 -4 12 -9 12 -5 0 -7 4 -3 9 3 5 -1 16
-9 24 -10 10 -11 18 -5 24 7 7 3 16 -12 27 -13 9 -17 16 -10 16 10 0 11 3 2
13 -6 8 -8 17 -4 20 3 4 1 7 -4 7 -6 0 -10 11 -8 25 2 23 -6 30 -29 26 -5 -1
-4 4 2 12 10 11 9 17 -3 27 -8 7 -15 18 -15 24 0 6 5 4 10 -4 5 -8 10 -10 10
-4 0 6 -7 17 -15 24 -12 10 -13 15 -4 21 8 4 4 9 -11 14 -17 5 -19 9 -9 15 11
7 10 13 -5 29 -10 11 -15 25 -11 30 3 6 2 11 -2 11 -5 0 -14 9 -21 21 -11 17
-11 20 0 13 15 -9 -9 25 -27 38 -6 5 -4 8 5 8 13 0 13 2 0 9 -8 6 -18 7 -24 4
-5 -3 -6 -1 -2 6 4 6 13 8 19 4 8 -5 8 -2 0 9 -7 8 -9 19 -5 23 4 5 2 6 -3 2
-6 -3 -17 3 -24 15 -8 13 -9 18 -1 13 8 -5 7 0 -1 13 -7 12 -17 18 -23 15 -5
-4 -6 -1 0 8 12 20 14 40 3 33 -5 -3 -6 -10 -3 -16 5 -7 2 -8 -5 -4 -7 5 -10
11 -7 14 3 3 1 12 -6 19 -9 11 -9 17 3 25 12 8 11 9 -2 5 -16 -5 -41 25 -46
56 -2 10 -10 26 -19 34 -8 9 -13 22 -10 29 3 7 -4 20 -14 27 -11 8 -17 17 -13
20 3 4 1 7 -6 7 -7 0 -9 5 -6 10 3 6 1 10 -4 10 -6 0 -10 6 -8 13 1 6 -4 11
-12 9 -11 -2 -12 0 -3 10 8 11 6 17 -9 26 -10 7 -19 19 -19 27 0 8 -7 15 -16
15 -8 0 -12 5 -9 10 3 6 1 10 -6 10 -8 0 -7 5 2 17 8 9 9 14 3 10 -7 -4 -15 0
-18 9 -3 8 -10 12 -16 9 -6 -3 -7 1 -4 9 4 9 0 18 -9 22 -9 3 -14 14 -12 25 2
10 0 20 -6 20 -5 1 -15 2 -21 3 -7 1 -12 11 -12 23 1 13 -3 20 -7 17 -5 -3 -9
2 -9 11 0 9 -4 14 -9 11 -5 -3 -12 1 -15 10 -4 10 -2 13 6 8 7 -4 8 -3 4 4 -4
7 -14 12 -23 12 -9 0 -13 6 -10 14 3 8 -1 17 -9 20 -9 3 -13 9 -11 13 3 5 -1
13 -8 20 -11 10 -15 10 -18 0 -3 -7 -6 -4 -6 6 -1 10 -10 27 -21 39 -11 12
-20 28 -20 35 0 7 -7 13 -16 13 -8 0 -12 5 -9 10 3 6 1 10 -4 10 -6 0 -11 7
-11 16 0 8 -4 12 -10 9 -5 -3 -10 1 -10 10 0 9 -4 13 -10 10 -5 -3 -10 1 -10
10 0 8 -10 20 -22 25 -14 5 -17 9 -8 10 9 0 3 7 -12 16 -16 8 -28 20 -28 27 0
6 -15 24 -32 40 -18 16 -26 26 -18 21 8 -4 2 6 -15 22 -16 16 -34 28 -39 25
-5 -2 -6 3 -3 13 4 9 3 15 -1 12 -5 -3 -15 4 -22 15 -8 10 -20 19 -27 19 -12
0 -18 13 -14 34 1 5 -5 6 -14 3 -9 -4 -15 -1 -15 8 0 14 -12 20 -33 16 -5 -1
-6 3 -3 8 9 13 -46 62 -61 56 -7 -2 -13 0 -13 5 0 6 5 10 10 10 6 0 10 4 10
10 0 5 -6 7 -14 4 -8 -3 -19 4 -26 16 -6 12 -18 19 -25 16 -9 -3 -12 1 -10 15
2 11 0 17 -4 14 -5 -2 -19 6 -32 18 -13 13 -32 27 -42 30 -10 4 -15 12 -12 17
4 6 3 10 -2 9 -19 -3 -34 2 -29 9 3 5 -4 16 -14 25 -13 11 -20 12 -24 4 -2 -7
-5 -4 -5 6 -1 10 -5 16 -9 13 -5 -3 -14 4 -22 14 -8 10 -17 17 -22 14 -4 -3
-8 0 -8 6 0 6 -5 8 -12 4 -7 -4 -8 -3 -4 4 8 13 -28 35 -39 24 -5 -4 -5 -1 -1
6 5 9 1 15 -13 19 -12 3 -18 10 -14 17 4 6 -1 5 -10 -2 -14 -12 -16 -11 -12 7
2 13 -1 21 -8 20 -21 -2 -57 13 -51 22 3 5 -2 9 -10 9 -8 0 -19 6 -23 13 -10
16 -66 52 -75 49 -5 -1 -8 3 -8 9 0 5 -4 7 -10 4 -5 -3 -10 -1 -10 4 0 6 -7
11 -16 11 -9 0 -12 5 -8 12 4 6 3 8 -4 4 -6 -3 -17 1 -25 9 -9 8 -23 15 -31
15 -9 0 -16 7 -16 15 0 8 -5 15 -11 15 -5 0 -7 -5 -4 -10 6 -10 -56 28 -82 50
-8 6 -13 5 -16 -3 -3 -7 -6 -4 -6 6 -1 10 -5 15 -11 12 -5 -3 -10 -1 -10 4 0
6 -7 11 -15 11 -8 0 -15 4 -15 8 0 5 -7 9 -15 10 -8 1 -22 3 -30 4 -8 1 -12 5
-9 10 5 7 -10 12 -28 9 -5 0 -8 3 -8 9 0 5 -7 10 -15 10 -8 0 -15 5 -15 11 0
8 -6 7 -17 -2 -10 -7 -15 -10 -11 -5 9 11 -14 35 -28 29 -7 -2 -22 6 -34 19
-13 13 -20 17 -16 11 4 -7 2 -13 -3 -13 -6 0 -11 5 -11 11 0 6 -9 9 -20 6 -11
-3 -18 -1 -14 4 5 8 -9 13 -28 10 -5 0 -8 4 -8 10 0 5 -4 7 -10 4 -5 -3 -10
-1 -10 5 0 6 -4 9 -9 6 -5 -4 -11 -1 -13 4 -2 6 -14 12 -28 13 -14 0 -31 9
-38 20 -10 13 -17 15 -27 7 -9 -7 -16 -6 -24 4 -7 8 -20 12 -28 9 -11 -4 -14
-2 -9 5 5 8 2 10 -8 6 -9 -3 -16 -1 -16 6 0 6 -4 8 -10 5 -5 -3 -10 -1 -10 6
0 8 -4 8 -15 -1 -13 -11 -19 -7 -17 11 1 3 -20 5 -46 4 -26 -1 -41 0 -34 2 6
3 12 9 12 15 0 6 -6 8 -14 5 -7 -3 -18 -1 -23 4 -5 5 -25 10 -45 11 -20 2 -34
7 -31 11 3 5 -1 8 -8 6 -25 -3 -40 1 -35 9 6 11 -25 9 -42 -2 -7 -4 -16 -5
-19 -2 -4 3 0 6 8 6 9 0 7 5 -6 12 -26 15 -55 18 -55 4 0 -5 -7 -1 -16 10 -8
10 -12 12 -8 4 7 -13 5 -13 -9 -2 -9 8 -25 11 -38 7 -16 -5 -19 -4 -14 5 5 8
3 11 -6 8 -8 -3 -23 2 -34 11 -19 15 -19 15 -5 -4 15 -19 15 -19 -12 -2 -20
13 -28 14 -28 5 0 -9 -3 -8 -10 2 -5 8 -10 11 -10 6 0 -5 -6 -4 -12 2 -7 5
-24 9 -38 8 -14 -1 -29 0 -35 3 -9 4 -27 7 -95 12 -8 1 -21 6 -27 12 -9 6 -13
6 -13 -2 0 -6 -4 -11 -10 -11 -5 0 -10 8 -10 18 0 14 -2 15 -10 2 -8 -13 -13
-13 -31 -2 -18 12 -23 12 -30 0 -6 -9 -9 -10 -9 -1 0 8 -11 11 -30 9 -16 -2
-30 1 -30 6 0 5 -9 4 -20 -2 -17 -9 -20 -8 -20 7 0 15 -2 16 -10 3 -5 -8 -10
-11 -10 -6 0 5 -8 2 -17 -5 -11 -10 -14 -10 -9 -1 4 7 2 12 -6 13 -7 0 -21 2
-31 4 -11 2 -15 -1 -11 -8 5 -8 3 -8 -6 0 -11 10 -16 9 -27 -5 -14 -16 -14
-16 -9 1 3 9 1 17 -4 17 -6 0 -10 -6 -10 -12 0 -9 -3 -10 -8 -2 -10 15 -374
15 -384 0 -5 -8 -8 -7 -8 2 0 6 -5 12 -11 12 -5 0 -7 -5 -3 -12 5 -7 3 -8 -7
-2 -8 4 -24 9 -36 10 -15 0 -20 -4 -15 -15 5 -14 4 -14 -14 0 -10 9 -25 14
-32 12z m-828 -171 c3 -5 -1 -9 -9 -9 -8 0 -12 4 -9 9 3 4 7 8 9 8 2 0 6 -4 9
-8z m-229 -82 c3 -5 1 -10 -4 -10 -6 0 -11 5 -11 10 0 6 2 10 4 10 3 0 8 -4
11 -10z m-754 -374 c-9 -11 -9 -15 1 -18 8 -3 7 -6 -4 -10 -9 -4 -15 -2 -14 5
2 15 16 37 23 37 3 0 0 -6 -6 -14z m-244 -180 c0 -8 -3 -15 -6 -14 -19 2 -32
-4 -51 -24 -11 -12 -20 -16 -20 -10 0 6 17 23 38 36 20 14 37 25 38 25 0 1 1
-5 1 -13z m-117 -85 c0 -5 -7 -12 -16 -15 -14 -5 -15 -4 -4 9 14 17 20 19 20
6z m-20 -41 c0 -5 -5 -10 -11 -10 -5 0 -7 5 -4 10 3 6 8 10 11 10 2 0 4 -4 4
-10z m-117 -75 c-3 -9 -8 -14 -10 -11 -3 3 -2 9 2 15 9 16 15 13 8 -4z m-112
-138 c-10 -9 -11 -8 -5 6 3 10 9 15 12 12 3 -3 0 -11 -7 -18z m-236 -227 c3
-5 1 -10 -4 -10 -6 0 -11 5 -11 10 0 6 2 10 4 10 3 0 8 -4 11 -10z m-110 -120
c3 -6 -1 -7 -9 -4 -18 7 -21 14 -7 14 6 0 13 -4 16 -10z m-145 -170 c0 -5 -2
-10 -4 -10 -3 0 -8 5 -11 10 -3 6 -1 10 4 10 6 0 11 -4 11 -10z m-185 -290 c3
-5 1 -10 -4 -10 -6 0 -11 5 -11 10 0 6 2 10 4 10 3 0 8 -4 11 -10z m-75 -116
c0 -8 -19 -13 -24 -6 -3 5 1 9 9 9 8 0 15 -2 15 -3z m-32 -29 c-3 -3 -9 2 -12
12 -6 14 -5 15 5 6 7 -7 10 -15 7 -18z m-134 -261 c3 -8 2 -12 -4 -9 -6 3 -10
10 -10 16 0 14 7 11 14 -7z m-83 -147 c-10 -9 -11 -8 -5 6 3 10 9 15 12 12 3
-3 0 -11 -7 -18z m2 -42 c-3 -9 -8 -14 -10 -11 -3 3 -2 9 2 15 9 16 15 13 8
-4z m-72 -138 c-10 -9 -11 -8 -5 6 3 10 9 15 12 12 3 -3 0 -11 -7 -18z m7897
-1238 c-3 -8 -7 -3 -11 10 -4 17 -3 21 5 13 5 -5 8 -16 6 -23z m11 -41 c-5
-10 -11 -18 -12 -18 -2 0 -3 8 -3 18 0 10 6 19 13 19 8 0 9 -6 2 -19z m-4 -68
c3 -6 -1 -7 -9 -4 -18 7 -21 14 -7 14 6 0 13 -4 16 -10z m-8 -49 c0 -11 -5
-18 -9 -15 -4 3 -5 11 -1 19 7 21 12 19 10 -4z m3 -65 c0 -2 -7 -7 -16 -10 -8
-3 -12 -2 -9 4 6 10 25 14 25 6z m-17 -149 c-8 -5 -17 -6 -20 -3 -4 3 -1 6 5
6 7 0 12 10 13 23 0 21 1 21 8 2 6 -14 4 -23 -6 -28z m42 -176 c3 -5 2 -12 -3
-15 -5 -3 -9 1 -9 9 0 17 3 19 12 6z m-650 -1761 c3 -5 1 -10 -4 -10 -6 0 -11
5 -11 10 0 6 2 10 4 10 3 0 8 -4 11 -10z m-215 -314 c0 -2 -8 -10 -17 -17 -16
-13 -17 -12 -4 4 13 16 21 21 21 13z m-50 -40 c0 -2 -8 -10 -17 -17 -16 -13
-17 -12 -4 4 13 16 21 21 21 13z m-385 -445 c3 -5 2 -12 -3 -15 -5 -3 -9 1 -9
9 0 17 3 19 12 6z m-665 -515 c0 -3 -4 -8 -10 -11 -5 -3 -10 -1 -10 4 0 6 5
11 10 11 6 0 10 -2 10 -4z m-246 -144 c3 -5 -1 -9 -9 -9 -8 0 -12 4 -9 9 3 4
7 8 9 8 2 0 6 -4 9 -8z m-113 -69 c13 -16 12 -17 -3 -4 -17 13 -22 21 -14 21
2 0 10 -8 17 -17z m-849 -325 c-7 -7 -12 -8 -12 -2 0 14 12 26 19 19 2 -3 -1
-11 -7 -17z"/>
<path d="M1840 7660 c-8 -5 -12 -12 -9 -15 4 -3 12 1 19 10 14 17 11 19 -10 5z"/>
<path d="M1515 7420 c-3 -5 -1 -10 4 -10 6 0 11 5 11 10 0 6 -2 10 -4 10 -3 0
-8 -4 -11 -10z"/>
<path d="M1483 7395 c0 -8 4 -12 9 -9 5 3 6 10 3 15 -9 13 -12 11 -12 -6z"/>
<path d="M1415 7320 c4 -6 11 -8 16 -5 14 9 11 15 -7 15 -8 0 -12 -5 -9 -10z"/>
<path d="M1040 6929 c0 -5 5 -7 10 -4 6 3 10 8 10 11 0 2 -4 4 -10 4 -5 0 -10
-5 -10 -11z"/>
<path d="M870 6739 c0 -5 5 -7 10 -4 6 3 10 8 10 11 0 2 -4 4 -10 4 -5 0 -10
-5 -10 -11z"/>
<path d="M811 6681 c-10 -6 -9 -10 3 -14 8 -3 18 -2 21 3 8 13 -9 20 -24 11z"/>
<path d="M590 6341 c0 -6 4 -13 10 -16 6 -3 7 1 4 9 -7 18 -14 21 -14 7z"/>
<path d="M7707 6169 c7 -7 15 -10 18 -7 3 3 -2 9 -12 12 -14 6 -15 5 -6 -5z"/>
<path d="M8243 5014 c-3 -8 -2 -19 3 -24 5 -5 9 1 9 16 0 28 -3 30 -12 8z"/>
<path d="M8182 4551 c-11 -7 -11 -9 0 -14 9 -3 15 1 15 9 0 8 -1 14 -1 14 -1
0 -7 -4 -14 -9z"/>
<path d="M8177 3996 c-3 -8 -2 -18 3 -21 13 -8 20 9 11 24 -6 10 -10 9 -14 -3z"/>
<path d="M8193 3805 c0 -8 4 -12 9 -9 5 3 6 10 3 15 -9 13 -12 11 -12 -6z"/>
<path d="M135 3080 c-3 -5 -1 -10 4 -10 6 0 11 5 11 10 0 6 -2 10 -4 10 -3 0
-8 -4 -11 -10z"/>
<path d="M190 2936 c0 -2 8 -10 18 -17 15 -13 16 -12 3 4 -13 16 -21 21 -21
13z"/>
<path d="M230 2840 c0 -5 5 -10 11 -10 5 0 7 5 4 10 -3 6 -8 10 -11 10 -2 0
-4 -4 -4 -10z"/>
<path d="M270 2806 c0 -2 7 -7 16 -10 8 -3 12 -2 9 4 -6 10 -25 14 -25 6z"/>
<path d="M7890 2760 c0 -5 5 -10 10 -10 6 0 10 5 10 10 0 6 -4 10 -10 10 -5 0
-10 -4 -10 -10z"/>
<path d="M7860 2566 c0 -2 8 -10 18 -17 15 -13 16 -12 3 4 -13 16 -21 21 -21
13z"/>
<path d="M7796 2433 c-6 -14 -5 -15 5 -6 7 7 10 15 7 18 -3 3 -9 -2 -12 -12z"/>
<path d="M530 2199 c0 -5 5 -7 10 -4 6 3 10 8 10 11 0 2 -4 4 -10 4 -5 0 -10
-5 -10 -11z"/>
<path d="M656 2002 c-2 -4 -1 -14 4 -22 7 -11 9 -9 7 8 -1 24 -3 26 -11 14z"/>
<path d="M7446 1862 c-3 -5 1 -9 9 -9 8 0 12 4 9 9 -3 4 -7 8 -9 8 -2 0 -6 -4
-9 -8z"/>
<path d="M7376 1758 c3 -5 10 -6 15 -3 13 9 11 12 -6 12 -8 0 -12 -4 -9 -9z"/>
<path d="M7376 1713 c-6 -14 -5 -15 5 -6 7 7 10 15 7 18 -3 3 -9 -2 -12 -12z"/>
<path d="M7336 1702 c-3 -5 1 -9 9 -9 8 0 12 4 9 9 -3 4 -7 8 -9 8 -2 0 -6 -4
-9 -8z"/>
<path d="M7276 1633 c-6 -14 -5 -15 5 -6 7 7 10 15 7 18 -3 3 -9 -2 -12 -12z"/>
<path d="M7150 1559 c0 -5 5 -7 10 -4 6 3 10 8 10 11 0 2 -4 4 -10 4 -5 0 -10
-5 -10 -11z"/>
<path d="M7170 1500 c0 -5 5 -10 11 -10 5 0 7 5 4 10 -3 6 -8 10 -11 10 -2 0
-4 -4 -4 -10z"/>
<path d="M7116 1442 c-3 -5 1 -9 9 -9 8 0 12 4 9 9 -3 4 -7 8 -9 8 -2 0 -6 -4
-9 -8z"/>
<path d="M1095 1420 c3 -5 8 -10 11 -10 2 0 4 5 4 10 0 6 -5 10 -11 10 -5 0
-7 -4 -4 -10z"/>
<path d="M7055 1380 c-3 -5 -1 -10 4 -10 6 0 11 5 11 10 0 6 -2 10 -4 10 -3 0
-8 -4 -11 -10z"/>
<path d="M7017 1355 c-4 -8 -3 -16 1 -19 4 -3 9 4 9 15 2 23 -3 25 -10 4z"/>
<path d="M6975 1300 c-3 -5 -1 -10 4 -10 6 0 11 5 11 10 0 6 -2 10 -4 10 -3 0
-8 -4 -11 -10z"/>
<path d="M1275 1261 c-3 -5 -2 -12 3 -15 5 -3 9 1 9 9 0 17 -3 19 -12 6z"/>
<path d="M6935 1260 c-3 -5 -1 -10 4 -10 6 0 11 5 11 10 0 6 -2 10 -4 10 -3 0
-8 -4 -11 -10z"/>
<path d="M6866 1202 c-3 -5 1 -9 9 -9 8 0 15 4 15 9 0 4 -4 8 -9 8 -6 0 -12
-4 -15 -8z"/>
<path d="M1330 1179 c0 -5 5 -7 10 -4 6 3 10 8 10 11 0 2 -4 4 -10 4 -5 0 -10
-5 -10 -11z"/>
<path d="M1373 1151 c0 -11 5 -18 9 -15 4 3 5 11 1 19 -7 21 -12 19 -10 -4z"/>
<path d="M6710 1135 c-8 -9 -8 -15 -2 -15 12 0 26 19 19 26 -2 2 -10 -2 -17
-11z"/>
<path d="M6777 1115 c-4 -8 -3 -16 1 -19 4 -3 9 4 9 15 2 23 -3 25 -10 4z"/>
<path d="M1556 1033 c-6 -14 -5 -15 5 -6 7 7 10 15 7 18 -3 3 -9 -2 -12 -12z"/>
<path d="M6610 1006 c0 -2 7 -7 16 -10 8 -3 12 -2 9 4 -6 10 -25 14 -25 6z"/>
<path d="M1594 976 c1 -8 5 -18 8 -22 4 -3 5 1 4 10 -1 8 -5 18 -8 22 -4 3 -5
-1 -4 -10z"/>
<path d="M1651 913 c7 -12 15 -20 18 -17 3 2 -3 12 -13 22 -17 16 -18 16 -5
-5z"/>
<path d="M6530 919 c0 -5 5 -7 10 -4 6 3 10 8 10 11 0 2 -4 4 -10 4 -5 0 -10
-5 -10 -11z"/>
<path d="M1695 891 c-3 -5 -2 -12 3 -15 5 -3 9 1 9 9 0 17 -3 19 -12 6z"/>
<path d="M1756 842 c-3 -5 1 -9 9 -9 8 0 12 4 9 9 -3 4 -7 8 -9 8 -2 0 -6 -4
-9 -8z"/>
<path d="M1793 835 c0 -8 4 -12 9 -9 5 3 6 10 3 15 -9 13 -12 11 -12 -6z"/>
<path d="M1866 758 c3 -5 10 -6 15 -3 13 9 11 12 -6 12 -8 0 -12 -4 -9 -9z"/>
<path d="M1909 723 c-13 -16 -12 -17 4 -4 16 13 21 21 13 21 -2 0 -10 -8 -17
-17z"/>
<path d="M6215 729 c-4 -6 -5 -12 -2 -15 2 -3 7 2 10 11 7 17 1 20 -8 4z"/>
<path d="M1925 700 c-3 -6 1 -7 9 -4 18 7 21 14 7 14 -6 0 -13 -4 -16 -10z"/>
<path d="M6256 698 c3 -5 10 -6 15 -3 13 9 11 12 -6 12 -8 0 -12 -4 -9 -9z"/>
<path d="M6155 689 c-4 -6 -5 -12 -2 -15 2 -3 7 2 10 11 7 17 1 20 -8 4z"/>
<path d="M6175 660 c3 -5 8 -10 11 -10 2 0 4 5 4 10 0 6 -5 10 -11 10 -5 0 -7
-4 -4 -10z"/>
<path d="M6150 640 c0 -5 5 -10 11 -10 5 0 7 5 4 10 -3 6 -8 10 -11 10 -2 0
-4 -4 -4 -10z"/>
<path d="M6006 582 c-3 -5 1 -9 9 -9 8 0 12 4 9 9 -3 4 -7 8 -9 8 -2 0 -6 -4
-9 -8z"/>
<path d="M2276 553 c-6 -14 -5 -15 5 -6 7 7 10 15 7 18 -3 3 -9 -2 -12 -12z"/>
<path d="M5920 560 c-9 -6 -10 -10 -3 -10 6 0 15 5 18 10 8 12 4 12 -15 0z"/>
<path d="M2190 556 c0 -2 8 -10 18 -17 15 -13 16 -12 3 4 -13 16 -21 21 -21
13z"/>
<path d="M5835 511 c-3 -5 -2 -12 3 -15 5 -3 9 1 9 9 0 17 -3 19 -12 6z"/>
<path d="M2310 479 c0 -5 5 -7 10 -4 6 3 10 8 10 11 0 2 -4 4 -10 4 -5 0 -10
-5 -10 -11z"/>
<path d="M5820 486 c0 -2 8 -10 18 -17 15 -13 16 -12 3 4 -13 16 -21 21 -21
13z"/>
<path d="M2536 418 c3 -5 10 -6 15 -3 13 9 11 12 -6 12 -8 0 -12 -4 -9 -9z"/>
<path d="M2595 420 c-3 -5 -1 -10 4 -10 6 0 11 5 11 10 0 6 -2 10 -4 10 -3 0
-8 -4 -11 -10z"/>
<path d="M5590 416 c0 -2 8 -10 18 -17 15 -13 16 -12 3 4 -13 16 -21 21 -21
13z"/>
<path d="M2650 356 c7 -7 13 -7 20 0 6 6 3 10 -10 10 -13 0 -16 -4 -10 -10z"/>
<path d="M5556 358 c3 -5 10 -6 15 -3 13 9 11 12 -6 12 -8 0 -12 -4 -9 -9z"/>
<path d="M2715 320 c-3 -5 -1 -10 4 -10 6 0 11 5 11 10 0 6 -2 10 -4 10 -3 0
-8 -4 -11 -10z"/>
<path d="M2830 321 c0 -6 4 -12 8 -15 5 -3 9 1 9 9 0 8 -4 15 -9 15 -4 0 -8
-4 -8 -9z"/>
<path d="M5295 300 c-3 -5 -1 -10 4 -10 6 0 11 5 11 10 0 6 -2 10 -4 10 -3 0
-8 -4 -11 -10z"/>
<path d="M5153 247 c0 -8 6 -14 14 -14 9 0 10 4 2 14 -6 7 -12 13 -14 13 -1 0
-2 -6 -2 -13z"/>
<path d="M3155 209 c-4 -6 -5 -12 -2 -15 2 -3 7 2 10 11 7 17 1 20 -8 4z"/>
<path d="M4974 196 c1 -8 5 -18 8 -22 4 -3 5 1 4 10 -1 8 -5 18 -8 22 -4 3 -5
-1 -4 -10z"/>
<path d="M3210 179 c0 -5 5 -7 10 -4 6 3 10 8 10 11 0 2 -4 4 -10 4 -5 0 -10
-5 -10 -11z"/>
<path d="M3495 180 c-3 -5 -1 -10 4 -10 6 0 11 5 11 10 0 6 -2 10 -4 10 -3 0
-8 -4 -11 -10z"/>
<path d="M4930 179 c0 -5 5 -7 10 -4 6 3 10 8 10 11 0 2 -4 4 -10 4 -5 0 -10
-5 -10 -11z"/>
<path d="M3555 160 c-3 -5 -1 -10 4 -10 6 0 11 5 11 10 0 6 -2 10 -4 10 -3 0
-8 -4 -11 -10z"/>
<path d="M4559 153 c-13 -16 -12 -17 4 -4 16 13 21 21 13 21 -2 0 -10 -8 -17
-17z"/>
<path d="M4635 160 c3 -5 8 -10 11 -10 2 0 4 5 4 10 0 6 -5 10 -11 10 -5 0 -7
-4 -4 -10z"/>
<path d="M4670 160 c0 -5 5 -10 11 -10 5 0 7 5 4 10 -3 6 -8 10 -11 10 -2 0
-4 -4 -4 -10z"/>
<path d="M4267 139 c7 -7 15 -10 18 -7 3 3 -2 9 -12 12 -14 6 -15 5 -6 -5z"/>
<path d="M4393 127 c0 -8 6 -14 14 -14 9 0 10 4 2 14 -6 7 -12 13 -14 13 -1 0
-2 -6 -2 -13z"/>
<path d="M3555 120 c3 -5 8 -10 11 -10 2 0 4 5 4 10 0 6 -5 10 -11 10 -5 0 -7
-4 -4 -10z"/>
<path d="M3820 126 c0 -2 8 -10 18 -17 15 -13 16 -12 3 4 -13 16 -21 21 -21
13z"/>
<path d="M4555 120 c3 -5 8 -10 11 -10 2 0 4 5 4 10 0 6 -5 10 -11 10 -5 0 -7
-4 -4 -10z"/>
<path d="M4133 105 c0 -8 4 -12 9 -9 5 3 6 10 3 15 -9 13 -12 11 -12 -6z"/>
<path d="M4253 105 c0 -8 4 -12 9 -9 5 3 6 10 3 15 -9 13 -12 11 -12 -6z"/>
<path d="M3634 96 c1 -8 5 -18 8 -22 4 -3 5 1 4 10 -1 8 -5 18 -8 22 -4 3 -5
-1 -4 -10z"/>
<path d="M3865 100 c-3 -6 1 -7 9 -4 18 7 21 14 7 14 -6 0 -13 -4 -16 -10z"/>
<path d="M4170 100 c0 -5 5 -10 11 -10 5 0 7 5 4 10 -3 6 -8 10 -11 10 -2 0
-4 -4 -4 -10z"/>
<path d="M4286 102 c-3 -5 1 -9 9 -9 8 0 12 4 9 9 -3 4 -7 8 -9 8 -2 0 -6 -4
-9 -8z"/>
<path d="M4330 106 c0 -2 7 -7 16 -10 8 -3 12 -2 9 4 -6 10 -25 14 -25 6z"/>
<path d="M4455 100 c-3 -5 -1 -10 4 -10 6 0 11 5 11 10 0 6 -2 10 -4 10 -3 0
-8 -4 -11 -10z"/>
</g>
</svg>
